<?xml version="1.0" encoding="UTF-8" standalone="no"?>
<svg
   version="1.1"
   width="664.88702"
   height="664.88702"
   id="svg162"
   viewBox="0 0 498.66527 498.66527"
   sodipodi:docname="01.svg"
   inkscape:version="1.2.2 (732a01da63, 2022-12-09)"
   xmlns:inkscape="http://www.inkscape.org/namespaces/inkscape"
   xmlns:sodipodi="http://sodipodi.sourceforge.net/DTD/sodipodi-0.dtd"
   xmlns="http://www.w3.org/2000/svg"
   xmlns:svg="http://www.w3.org/2000/svg">
  <defs
     id="defs166" />
  <sodipodi:namedview
     id="namedview164"
     pagecolor="#ffffff"
     bordercolor="#000000"
     borderopacity="0.25"
     inkscape:showpageshadow="2"
     inkscape:pageopacity="0.0"
     inkscape:pagecheckerboard="0"
     inkscape:deskcolor="#d1d1d1"
     showgrid="false"
     inkscape:zoom="0.65744949"
     inkscape:cx="330.06338"
     inkscape:cy="342.23161"
     inkscape:window-width="1366"
     inkscape:window-height="705"
     inkscape:window-x="-8"
     inkscape:window-y="-8"
     inkscape:window-maximized="1"
     inkscape:current-layer="svg162"
     inkscape:document-units="pt" />
  <path
     d="m 498.6656,249.3328 c 0,137.7024 -111.6304,249.3328 -249.3328,249.3328 C 111.6298,498.6656 0,387.0352 0,249.3328 0,111.6298 111.6298,0 249.3328,0 387.0352,0 498.6656,111.6298 498.6656,249.3328 Z"
     style="fill:#fde8e2;fill-rule:evenodd;stroke:none;stroke-width:4.11874;stroke-dasharray:none;stroke-opacity:1"
     id="path132"
     inkscape:export-filename="logo.png"
     inkscape:export-xdpi="96"
     inkscape:export-ydpi="96" />
  <path
     d="m 413.2022,334.3054 c -5.5806,3.6452 -11.5162,5.9357 -17.9619,7.7923 6.0719,-2.3393 12.0524,-5.0629 17.9619,-7.7923 z m 3.1282,-2.2124 c -0.255,0.195 -0.5095,0.3779 -0.7645,0.563 -7.2235,2.7236 -14.5413,5.4547 -21.5599,8.6878 6.922,-4.387 14.1047,-8.1952 22.3244,-9.2508 z m -18.7793,-19.8755 c -2.6944,8.7046 -5.1881,17.4972 -6.7961,26.4749 -0.035,0.1869 0.01,0.3452 0.0925,0.4745 l -0.2014,0.2072 c -0.008,-9.7747 1.8672,-18.8095 6.905,-27.1566 z m -0.5996,13.6604 c -0.9735,4.079 -2.2427,7.9222 -4.3032,11.4504 l -0.3528,0.3615 c 2.0145,-8.9835 3.9002,-17.988 6.3298,-26.8731 0.8361,5.0279 -0.4949,10.1258 -1.6738,15.0612 z m 13.0712,-5.5374 0.5054,-0.1147 c 8.1684,-6.7496 16.3939,-13.2541 24.9547,-19.4773 -2.9576,4.4137 -7.9053,8.084 -11.8119,11.122 -4.4365,3.4542 -9.1646,6.406 -14.0796,9.1069 0.1479,-0.2119 0.2876,-0.425 0.4314,-0.6369 z m 26.6123,-21.5663 -0.008,0.0128 c -8.622,5.3505 -17.035,11.6087 -24.567,18.4951 0.4809,-0.7411 0.9635,-1.4829 1.4299,-2.2304 5.9152,-7.5438 13.9585,-13.5988 23.1452,-16.2775 z M 411.1563,293.66 c 0.1152,-3.9107 0.7085,-7.7777 1.7664,-11.5179 -0.0309,2.1379 0.3103,4.504 0.3103,5.3849 -0.0186,6.5668 -0.3697,13.2151 -0.0186,19.7649 0.008,0.1933 0.1153,0.3121 0.2422,0.3657 -0.0612,0.386 -0.1269,0.7685 -0.191,1.1562 -1.1295,-5.0297 -2.2531,-9.8609 -2.1093,-15.1538 z m 4.3625,-1.4869 c -0.0839,3.7506 -0.6573,7.3551 -1.2879,10.9723 0.0763,-3.2004 0.0268,-6.4107 0.078,-9.6024 0.0187,-1.0165 0.5159,-8.5911 0.5712,-12.2783 0.489,3.6109 0.7272,7.2503 0.6387,10.9084 z m 12.5332,-6.8043 c 6.7863,-5.4431 13.225,-11.8143 19.1385,-18.2431 -4.2886,8.5219 -11.2332,15.3058 -19.7876,19.5635 0.2032,-0.4436 0.4291,-0.8791 0.6491,-1.3204 z m 5.5945,-8.9387 c 3.1224,-3.8717 8.6039,-10.0356 14.0529,-11.2414 -5.9974,6.1866 -12.2166,11.9848 -18.4544,17.8757 1.2756,-2.3149 2.7154,-4.5413 4.4015,-6.6343 z M 421.65,264.0697 c -0.9798,-5.63 -1.4462,-13.7 1.6163,-18.997 l 0.1024,0.4111 c -1.8444,9.5302 -0.8727,20.1282 3.1964,29.0296 -0.0478,0.9613 -0.0926,1.9225 -0.1747,2.882 -2.2328,-4.1838 -3.913,-8.5935 -4.7404,-13.3257 z m 5.0484,5.7301 c -2.206,-6.9999 -3.1469,-13.9585 -2.5652,-21.4388 1.7332,7.0308 2.5734,14.2153 2.5652,21.4388 z m 27.2347,-49.4169 c -5.2987,10.4501 -10.9002,20.7261 -17.0943,30.6668 l 0.2073,0.1234 c 6.4986,-9.2548 12.3295,-18.9125 17.2631,-29.0814 -2.5838,11.5883 -8.2424,24.624 -18.5615,30.5521 3.1696,-12.3732 7.581,-24.6328 18.1854,-32.2609 z m -37.4077,-14.6898 c 3.321,3.7116 6.3199,7.6922 8.9364,11.9353 3.0298,4.9232 7.3324,11.5144 7.1315,17.4419 -0.002,0.191 0.0367,0.3493 0.1025,0.4844 -9.4295,-7.6281 -16.3614,-17.347 -16.1704,-29.8616 z m 18.8817,9.1564 c 6.6978,-7.5769 8.4211,-18.59 12.3563,-27.8367 -0.1356,5.6195 -2.0767,11.5162 -3.9352,16.5954 -1.9265,5.287 -5.4943,8.7005 -8.5299,13.0549 0.0244,-0.6102 0.0634,-1.2116 0.1088,-1.8136 z m 12.2923,-30.3792 0.0145,0.2503 c -5.0792,8.7804 -6.4823,19.0192 -12.0582,27.4775 1.218,-10.2265 5.2003,-19.808 12.0437,-27.7278 z m -36.457,-7.6718 c 7.2835,5.0652 12.184,12.4919 16.518,20.2621 -4.989,-7.0471 -10.9124,-13.6872 -16.518,-20.2621 z m -1.8072,-0.5048 c 4.7817,6.6442 9.8464,13.6174 15.5276,19.666 -6.9423,-5.2475 -12.8843,-11.1302 -15.5276,-19.666 z m -80.723,202.4723 c 22.3447,-5.5473 43.348,-18.1359 60.3194,-34.0437 0.0967,0.3267 0.3575,0.598 0.7808,0.5817 11.0911,-0.4664 22.2084,-6.6279 30.3792,-13.7821 0.6468,-0.5689 0.1357,-1.7478 -0.7045,-1.7106 -8.764,0.3924 -16.7828,3.7873 -24.0162,8.5009 1.4887,-1.5667 2.9431,-3.1568 4.3479,-4.7689 2.9105,-3.3396 5.6522,-6.8049 8.2302,-10.3785 0.2917,0.3965 0.8215,0.6323 1.3862,0.3452 6.2128,-3.1532 12.0565,-7.0389 17.4233,-11.4858 4.7427,-3.9335 10.3622,-8.4171 12.3871,-14.4494 0.2178,-0.6532 -0.5111,-1.4666 -1.1935,-1.1929 -8.8438,3.5363 -16.5441,8.47 -22.5351,15.3197 3.424,-5.8431 6.4346,-11.9144 9.0208,-18.1667 l 0.2894,-0.3226 c 0.45,-1.3146 0.9327,-2.6124 1.4503,-3.8921 11.2658,-4.8655 19.7789,-13.6953 24.3818,-25.0927 0.2545,-0.6224 -0.372,-1.2343 -0.9507,-1.2529 -6.3409,-0.1887 -12.7901,6.4619 -16.5773,10.9782 -1.1709,1.3909 -2.2532,2.847 -3.247,4.3625 1.9527,-6.6914 3.4484,-13.5312 4.4585,-20.463 l 0.1933,-0.2632 c 0.1992,-0.8524 0.4023,-1.7065 0.6119,-2.5588 13.3385,-6.2419 19.7114,-23.5156 21.9483,-37.0363 0.1374,-0.8133 -0.6469,-1.5795 -1.448,-1.1155 -11.2285,6.5196 -17.1048,18.0666 -20.1405,30.2605 0.6655,-8.9981 0.5357,-18.1278 -0.5525,-27.12 0.166,-0.0798 0.2894,-0.2399 0.2894,-0.499 l 0.004,-0.1519 0.312,-0.2073 c 4.3008,-5.0629 8.0823,-9.3765 10.2801,-15.7576 2.2922,-6.6675 4.5885,-14.1454 3.3396,-21.2047 -0.117,-0.6655 -1.0416,-0.8337 -1.4724,-0.3883 -8.2325,8.4415 -13.2971,19.5431 -13.8066,31.2257 -0.7458,-4.1529 -1.7006,-8.2627 -2.8959,-12.2969 0.425,-0.2754 0.7004,-0.8279 0.4064,-1.4153 -5.3051,-10.7971 -12.3604,-21.4633 -23.3572,-27.0641 -0.9181,-0.4664 -1.834,0.2998 -1.6575,1.2733 2.27,12.4325 11.8369,22.6136 23.452,27.1916 l 0.0222,0.0227 c 1.6825,8.8176 2.773,17.6701 3.194,26.5017 -1.3723,-3.3419 -3.3437,-6.5563 -5.0135,-9.3614 -3.3296,-5.5846 -7.3061,-10.6521 -11.6989,-15.4397 -0.6637,-0.7272 -1.6395,-0.0797 -1.7461,0.7231 -1.8217,14.2438 6.5994,27.7255 18.6372,34.8448 -0.191,12.0256 -1.6989,23.9755 -4.7404,35.7135 0.4355,-10.5119 -0.9612,-20.8286 -4.0359,-30.9894 -0.1851,-0.6125 -1.0602,-0.9432 -1.5219,-0.4029 -4.2315,4.9686 -4.3957,12.8372 -3.7279,19.0232 0.7517,6.9446 3.2203,13.583 7.326,19.227 -0.9793,3.1363 -2.0721,6.25 -3.286,9.3491 -2.0517,5.2335 -4.4306,10.3273 -7.0861,15.2627 2.4814,-9.7538 1.551,-20.8921 -0.7312,-30.3606 -0.1578,-0.6573 -1.2099,-0.8524 -1.5155,-0.1974 -5.1229,10.8961 -7.1316,25.4747 -1.1709,36.5332 -4.6256,7.6835 -9.9634,14.9279 -15.9159,21.6356 0.7621,-2.0884 1.3513,-4.2554 1.8648,-6.4492 1.3991,-5.9851 2.8837,-12.0954 1.1359,-18.1522 -0.2235,-0.7888 -1.1708,-0.7993 -1.608,-0.2119 -6.809,9.1873 -10.7215,21.2723 -8.9754,32.7477 -5.7884,5.63 -12.032,10.7954 -18.6745,15.4129 -13.112,9.1192 -27.3686,15.4327 -42.4298,20.5614 -1.2838,0.4395 -0.7761,2.3806 0.5607,2.0476 z"
     style="fill:#373937;fill-rule:evenodd"
     id="path134" />
  <path
     d="m 101.1081,342.0977 c -6.4474,-1.8566 -12.3813,-4.1471 -17.9659,-7.7923 5.9112,2.7294 11.8882,5.453 17.9659,7.7923 z m 1.2343,-0.7539 c -7.0186,-3.2331 -14.3428,-5.9642 -21.564,-8.6878 -0.2567,-0.1851 -0.5094,-0.368 -0.7621,-0.563 8.2197,1.0556 15.4042,4.8638 22.3261,9.2508 z m 3.3599,-1.9697 -0.2072,-0.2072 c 0.0861,-0.1293 0.1275,-0.2876 0.0966,-0.4745 -1.6063,-8.9777 -4.0976,-17.7703 -6.7944,-26.4749 5.0361,8.3471 6.9114,17.3819 6.905,27.1566 z m -7.9856,-28.5574 c 2.4342,8.8851 4.3177,17.8896 6.3345,26.8731 l -0.3575,-0.3615 c -2.0599,-3.5282 -3.325,-7.3714 -4.3008,-11.4504 -1.1813,-4.9354 -2.5123,-10.0333 -1.6762,-15.0612 z m -10.9636,10.1607 c -4.9151,-2.7009 -9.6368,-5.6527 -14.0773,-9.1069 -3.9049,-3.038 -8.8607,-6.7083 -11.8125,-11.122 8.5608,6.2232 16.7828,12.7277 24.953,19.4773 l 0.5094,0.1147 c 0.1438,0.2119 0.2812,0.425 0.4274,0.6369 z m -3.8962,-5.9257 c 0.464,0.7475 0.949,1.4893 1.4317,2.2304 -7.5321,-6.8864 -15.9509,-13.1446 -24.5734,-18.4951 l -0.008,-0.0128 c 9.1891,2.6787 17.2364,8.7337 23.1499,16.2775 z m 0.2195,-6.2379 c -0.0617,-0.3877 -0.1252,-0.7702 -0.1869,-1.1562 0.1252,-0.0536 0.2364,-0.1724 0.2422,-0.3657 0.3517,-6.5498 0,-13.1981 -0.0163,-19.7649 -0.002,-0.8809 0.3412,-3.247 0.3103,-5.3849 1.0556,3.7402 1.6494,7.6072 1.7601,11.5179 0.1461,5.2929 -0.9799,10.1241 -2.1094,15.1538 z m -1.6081,-27.5491 c 0.0553,3.6872 0.5485,11.2618 0.5671,12.2783 0.0489,3.1917 0,6.402 0.078,9.6024 -0.6305,-3.6172 -1.2017,-7.2217 -1.2919,-10.9723 -0.0821,-3.6581 0.1496,-7.2975 0.6468,-10.9084 z m -12.5268,5.4245 c -8.5527,-4.2577 -15.4968,-11.0416 -19.7894,-19.5635 5.9153,6.4288 12.3563,12.8 19.1443,18.2431 0.216,0.4413 0.4436,0.8768 0.6451,1.3204 z m -1.8422,-3.6248 C 60.8575,277.1735 54.64,271.3753 48.6467,265.1887 c 5.4449,1.2058 10.9311,7.3697 14.0529,11.2414 1.6843,2.093 3.1259,4.3194 4.3997,6.6343 z m 2.8529,-5.669 c -0.0763,-0.9595 -0.1234,-1.9207 -0.1747,-2.882 4.0708,-8.9014 5.0402,-19.4994 3.1958,-29.0296 l 0.1048,-0.4111 c 3.0642,5.297 2.5943,13.367 1.6145,18.997 -0.8256,4.7322 -2.5018,9.1419 -4.7404,13.3257 z m 2.2613,-29.0344 c 0.577,7.4803 -0.3639,14.4389 -2.5676,21.4388 -0.006,-7.2235 0.8297,-14.408 2.5676,-21.4388 z m -11.6151,4.2828 C 50.2758,246.7157 44.6213,233.68 42.0351,222.0917 c 4.9354,10.1689 10.7645,19.8266 17.2632,29.0814 l 0.2113,-0.1234 C 53.3132,241.109 47.7059,230.833 42.413,220.3829 c 10.6003,7.6281 15.0164,19.8877 18.1854,32.2609 z m 3.0478,-17.0891 c 0.0722,-0.1351 0.1112,-0.2934 0.1048,-0.4844 -0.1991,-5.9275 4.1081,-12.5187 7.1333,-17.4419 2.613,-4.2431 5.6137,-8.2237 8.937,-11.9353 0.1927,12.5146 -6.7432,22.2335 -16.1751,29.8616 z m -2.596,-18.8916 c -3.0398,-4.3544 -6.6116,-7.7679 -8.5382,-13.0549 -1.8526,-5.0792 -3.789,-10.9759 -3.9328,-16.5954 3.9369,9.2467 5.6585,20.2598 12.3603,27.8367 0.0449,0.602 0.0798,1.2034 0.1107,1.8136 z m -0.3593,-4.465 C 55.1104,203.7398 53.712,193.501 48.6304,184.7206 l 0.0122,-0.2503 c 6.8498,7.9198 10.8263,17.5013 12.0483,27.7278 z m 7.8972,-15.1375 c 4.3339,-7.7702 9.2303,-15.1969 16.5156,-20.2621 -5.6032,6.5749 -11.5284,13.215 -16.5156,20.2621 z m 2.7934,-1.1009 c 5.683,-6.0486 10.7482,-13.0218 15.5299,-19.666 -2.6415,8.5358 -8.5835,14.4185 -15.5299,19.666 z m 96.8131,180.7587 c -15.063,-5.1287 -29.3213,-11.4422 -42.4293,-20.5614 -6.6424,-4.6175 -12.8884,-9.7829 -18.6744,-15.4129 1.746,-11.4754 -2.1711,-23.5604 -8.9736,-32.7477 -0.4373,-0.5874 -1.3845,-0.5769 -1.6104,0.2119 -1.7537,6.0568 -0.2626,12.1671 1.1382,18.1522 0.5112,2.1938 1.105,4.3608 1.8625,6.4492 -5.9543,-6.7077 -11.2903,-13.9521 -15.9136,-21.6356 5.9525,-11.0585 3.9497,-25.6371 -1.1767,-36.5332 -0.3062,-0.655 -1.3577,-0.4599 -1.512,0.1974 -2.2857,9.4685 -3.2161,20.6068 -0.7312,30.3606 -2.6555,-4.9354 -5.0379,-10.0292 -7.0855,-15.2627 -1.2122,-3.0991 -2.3108,-6.2128 -3.2884,-9.3491 4.1035,-5.644 6.5767,-12.2824 7.3243,-19.227 0.6672,-6.186 0.5071,-14.0546 -3.7262,-19.0232 -0.464,-0.5403 -1.335,-0.2096 -1.5178,0.4029 -3.0747,10.1608 -4.4732,20.4775 -4.0377,30.9894 -3.042,-11.738 -4.5534,-23.6879 -4.7427,-35.7135 12.0419,-7.1193 20.4613,-20.601 18.6355,-34.8448 -0.1008,-0.8028 -1.0789,-1.4503 -1.7461,-0.7231 -4.3893,4.7876 -8.3658,9.8551 -11.6931,15.4397 -1.6698,2.8051 -3.6476,6.0195 -5.0199,9.3614 0.4216,-8.8316 1.5161,-17.6841 3.1941,-26.5017 l 0.0285,-0.0227 c 11.611,-4.578 21.1803,-14.7591 23.4497,-27.1916 0.177,-0.9735 -0.7411,-1.7397 -1.6575,-1.2733 -11.0009,5.6008 -18.0556,16.267 -23.3572,27.0641 -0.2894,0.5874 -0.018,1.1399 0.4087,1.4153 -1.1953,4.0342 -2.1501,8.144 -2.8977,12.2969 -0.5094,-11.6826 -5.5746,-22.7842 -13.8106,-31.2257 -0.4291,-0.4454 -1.3554,-0.2772 -1.4747,0.3883 -1.2489,7.0593 1.0538,14.5372 3.3459,21.2047 2.1973,6.3811 5.9788,10.6947 10.2796,15.7576 l 0.3144,0.2073 v 0.1519 c 0,0.2591 0.1251,0.4192 0.2916,0.499 -1.0945,8.9922 -1.2179,18.1219 -0.5548,27.12 -3.0333,-12.1939 -8.9096,-23.7409 -20.1405,-30.2605 -0.8028,-0.464 -1.5853,0.3022 -1.4479,1.1155 2.2386,13.5207 8.608,30.7944 21.9441,37.0363 0.2114,0.8523 0.4169,1.7064 0.6183,2.5588 l 0.1951,0.2632 c 1.0084,6.9318 2.4994,13.7716 4.4568,20.463 -0.9985,-1.5155 -2.0808,-2.9716 -3.2511,-4.3625 -3.7878,-4.5163 -10.2329,-11.1669 -16.5732,-10.9782 -0.5752,0.0186 -1.2034,0.6305 -0.9531,1.2529 4.5989,11.3974 13.1161,20.2272 24.3801,25.0927 0.5176,1.2797 1.0003,2.5775 1.4538,3.8921 l 0.2917,0.3226 c 2.5839,6.2523 5.5951,12.3236 9.019,18.1667 -5.9915,-6.8497 -13.6895,-11.7834 -22.5356,-15.3197 -0.6859,-0.2737 -1.4154,0.5397 -1.1953,1.1929 2.0313,6.0323 7.6444,10.5159 12.3889,14.4494 5.3627,4.4469 11.2081,8.3326 17.4215,11.4858 0.563,0.2871 1.0986,0.0513 1.3903,-0.3452 2.5798,3.5736 5.3156,7.0389 8.2302,10.3785 1.4008,1.6121 2.8528,3.2022 4.3462,4.7689 -7.2381,-4.7136 -15.2522,-8.1085 -24.0145,-8.5009 -0.846,-0.0372 -1.3595,1.1417 -0.7045,1.7106 8.1708,7.1542 19.2864,13.3157 30.3775,13.7821 0.4192,0.0163 0.68,-0.255 0.7825,-0.5817 16.9674,15.9078 37.9771,28.4964 60.3131,34.0437 1.335,0.333 1.8485,-1.6081 0.5647,-2.0476 z"
     style="fill:#373937;fill-rule:evenodd"
     id="path136" />
  <g
     id="Layer1000"
     transform="translate(-48.3052,-171.612)">
    <path
       d="m 155.8827,322.344 h 15.0158 v -0.9243 h -4.7933 v -17.6149 h 3.061 c 5.6019,0 7.2766,1.9639 7.2766,7.5658 h 0.982 v -15.882 h -0.982 c 0,5.6019 -1.6747,7.3924 -7.2766,7.3924 h -3.061 v -17.1529 h 5.1976 c 9.5872,0 11.1462,2.079 11.1462,11.6662 h 0.9244 v -12.59 h -27.4907 v 0.9238 h 4.2157 v 35.6916 h -4.2157 z m 62.9524,-0.9243 h -4.2738 v 0.9243 h 14.7848 v -0.9243 h -4.1005 L 213.5794,283.649 h -0.1734 c -2.1366,0 -2.7143,1.5014 -3.4071,3.5229 l -9.4139,27.202 c -1.4438,4.2163 -3.0033,7.0458 -7.4505,7.0458 v 0.9243 h 17.0954 v -0.9243 h -0.982 c -3.9271,0 -7.9124,-0.0576 -7.9124,-3.9848 0,-1.0395 0.1733,-2.3681 0.6352,-3.6386 l 1.8481,-5.4286 h 11.031 z m -9.3562,-29.454 h 0.3467 l 4.7357,15.4777 h -10.3958 z m 43.4296,30.4359 c -7.97,0 -11.031,-5.7753 -12.0124,-13.0519 h -0.9243 l 0.5776,14.1496 h 0.6928 c 0.1734,-1.271 0.6353,-1.9639 1.9639,-1.9639 1.7324,0 4.5048,1.9639 9.1248,1.9639 7.0462,0 12.7063,-4.4472 12.7063,-11.4929 0,-13.2835 -20.0987,-9.8182 -20.0987,-20.5031 0,-4.1581 2.7148,-6.7572 6.8729,-6.7572 6.5262,0 9.7024,5.0824 10.8001,11.5511 h 0.9237 V 283.649 h -0.6928 c -0.1733,1.2705 -0.6352,1.9639 -1.9638,1.9639 -1.7324,0 -5.0825,-1.9639 -9.5873,-1.9639 -6.5838,0 -10.7419,3.812 -10.7419,10.3958 0,13.2834 20.0982,9.8182 20.0982,20.5025 0,4.7933 -2.9452,7.8543 -7.7391,7.8543 z m 29.3958,-36.6735 v 35.6916 h -4.2157 v 0.9243 h 15.0158 v -0.9243 h -4.7934 v -18.0186 h 15.882 v 18.0186 h -4.2157 v 0.9243 h 15.0158 v -0.9243 h -4.7939 v -35.6916 h 4.7939 v -0.9238 h -15.0158 v 0.9238 h 4.2157 v 16.7486 h -15.882 v -16.7486 h 4.7934 v -0.9238 h -15.0158 v 0.9238 z m 50.4178,0 v 35.6916 h -4.2157 v 0.9243 h 15.0157 v -0.9243 h -4.7933 v -35.6916 h 4.7933 v -0.9238 h -15.0157 v 0.9238 z m 40.6594,37.7712 c 10.7424,0 16.3444,-9.3563 16.3444,-20.0982 0,-10.5116 -5.8329,-19.7521 -16.3444,-19.7521 -10.511,0 -16.3439,9.2405 -16.3439,19.7521 0,10.7419 5.6019,20.0982 16.3439,20.0982 z m 0,-1.0977 c -9.0096,0 -9.2982,-9.9915 -9.2982,-19.0005 0,-8.7787 0.5201,-18.655 9.2982,-18.655 8.7786,0 9.2986,9.8763 9.2986,18.655 0,8.7781 -0.52,19.0005 -9.2986,19.0005 z m 58.4459,-29.3387 c 0,-5.6019 1.9639,-7.3348 7.5658,-7.3348 v -0.9238 H 422.876 v 0.9238 h 0.4043 c 5.6019,0 7.3924,1.7329 7.3924,7.3348 v 22.3506 h -0.3467 l -15.3049,-26.2778 c -1.7899,-3.0034 -3.1185,-4.3314 -7.0457,-4.3314 h -6.0062 v 0.8662 c 2.4252,0 4.7933,0.5194 6.0638,2.6566 v 25.7583 c 0,5.6019 -1.9633,7.3343 -7.5658,7.3343 v 0.9243 h 16.5178 v -0.9243 h -0.4043 c -5.6019,0 -7.3924,-1.7324 -7.3924,-7.3343 v -23.3907 h 0.2309 l 15.2467,26.2202 c 2.3106,3.9853 3.4653,5.8334 6.2377,5.8334 h 0.9238 z"
       style="fill:#144c90;fill-rule:evenodd"
       id="path138" />
    <text
       x="183.35252"
       y="262.72629"
       id="text142"><tspan
         font-family="Marchila"
         font-size="37.5px"
         fill="#373937"
         id="tspan140">Cleusa Moda</tspan></text>
    <text
       x="224.01402"
       y="367.5954"
       id="text148"><tspan
         font-family="Calibri"
         font-size="27px"
         fill="#1b1918"
         id="tspan144">E- Commerce</tspan><tspan
         font-family="Calibri"
         font-size="27px"
         fill="#1b1918"
         id="tspan146" /></text>
  </g>
  <g
     id="Layer1001"
     transform="translate(-48.3052,-171.612)">
    <path
       d="m 304.1817,379.2894 c -4.8069,2.481 -6.3983,4.138 -3.9,10.1238 4.3796,0.7696 8.1876,-0.5529 6.3259,-5.1188 -2.5266,-1.0547 -2.671,-0.7209 -4.4566,0.9307 1.2071,0.8492 1.3242,0.0975 3.4958,-0.1673 -0.4792,5.7426 -5.8062,4.161 -5.2386,-0.3311 0.4103,-3.2465 5.1785,-5.5625 7.5624,-3.0011 2.4003,2.5789 0.9929,8.249 -0.352,10.203 -4.7966,6.9694 -1.0956,-0.2098 -4.901,8.6972 -1.8178,0.5824 -3.3948,1.2017 -4.9628,1.6491 -0.1427,12.2386 4.2211,10.1932 -15.9139,17.7664 -3.9619,1.4902 -4.9926,1.3337 -5.7449,6.1869 -1.6368,10.5613 8.1142,27.4401 8.6339,38.5379 0.5741,12.2584 -8.8194,15.0964 -10.6407,36.7827 -0.3639,4.3346 0.1514,7.2465 0.7074,11.3234 0.6376,4.6744 0.0298,5.7475 4.4919,7.5037 5.4516,2.1456 14.0767,2.9416 20.3937,3.334 0.2452,5.0831 -0.8679,42.5665 -1.6998,44.2073 -1.4195,-5.6808 -1.8875,-14.1492 -9.9335,-11.5716 -1.8172,3.1494 -2.0079,6.2441 2.5167,6.5752 -0.1044,-0.1441 -0.2946,-0.5077 -0.3569,-0.3969 -0.0134,0.024 -2.3236,-1.4628 -1.9066,-4.8108 4.7569,-1.2379 6.3715,1.6232 7.4636,5.9382 6.2203,24.5774 -1.5942,-0.7357 -5.3385,32.6433 -0.8308,7.4059 -0.6334,13.4732 -11.8748,15.7734 -8.957,1.8327 -15.8902,-3.4349 -13.9431,-12.2926 1.6669,-7.5831 13.8049,-12.9832 13.4673,-2.6334 -2.3738,2.2722 -0.8851,-0.7856 -2.9128,2.1079 8.7623,0.1039 2.873,-7.9078 1.495,-8.658 -4.138,-2.2524 -9.2047,1.588 -10.7137,3.5092 -5.1602,6.5695 -3.602,18.4436 6.1274,19.3598 9.3294,0.8785 17.3769,-1.9871 19.1105,-11.8611 1.3761,-7.8373 0.5974,-21.7896 7.5126,-23.8819 -0.4691,5.625 -2.6512,19.7365 0.8893,24.337 1.8238,2.3699 3.9839,1.6057 6.7347,2.804 1.3157,4.4974 1.4084,6.9945 5.7356,9.6446 3.5872,2.197 9.8745,2.9579 12.3865,-0.3329 7.034,-9.2156 -1.7079,-18.9455 -9.4761,-14.8367 l -0.8269,5.6309 c 1.5313,0.699 2.5591,1.2628 4.6967,1.2182 -0.103,-0.1275 -0.2971,-0.4476 -0.3611,-0.3332 -0.0254,0.0453 -3.2697,-1.9133 -3.0536,-3.8168 0.5493,-4.8363 7.3625,-2.1801 9.6113,1.7915 2.3047,4.0707 -1.6048,15.0606 -10.9392,10.3516 -3.2625,-1.6457 -6.0403,-5.1387 -6.568,-9.9109 0.1997,-0.9519 2.8847,-1.5875 3.2193,-6.5228 0.3412,-5.0296 -1.0647,-4.7861 -3.6027,-6.5365 -0.1195,-7.7669 0.4728,-12.8591 -6.0758,-16.0272 0.2414,-4.3232 2.1784,-11.9957 3.8482,-15.6303 2.8886,-6.2881 11.255,-1.4975 2.9287,2.571 0.1735,0.1277 -1.0472,1.4365 2.3798,0.5445 2.7238,-0.709 2.4141,-5.648 1.1333,-6.8228 -7.9071,-3.8299 -9.7069,9.6248 -11.2437,15.525 -1.6328,-12.7363 0.8793,-34.0168 1.0069,-47.8235 8.4381,-1.1111 23.3806,-0.5562 25.2977,-9.6064 0.6837,-3.2277 0.7925,-7.8008 0.8061,-11.1784 0.0667,-16.4238 -8.5587,-26.8901 -7.5978,-39.797 0.5229,-7.0211 4.5991,-11.1611 6.9353,-16.4546 12.9261,-29.2889 0.7282,-24.3946 -6.8469,-28.4732 -13.0921,-7.049 -4.8441,-7.8231 -8.4108,-15.2989 -1.4871,-1.7847 -3.4463,-1.8224 -6.5083,-2.3567 -0.0404,-7.4153 7.5026,-6.2155 5.5849,-16.2205 -0.5663,-2.9543 -1.2648,-3.6943 -2.9838,-4.8675 z"
       style="fill:#144c90;fill-rule:evenodd;stroke:#144c90;stroke-width:0.216;stroke-linecap:butt;stroke-linejoin:miter;stroke-dasharray:none"
       id="path151" />
    <path
       d="m 310.5088,404.6995 -10.8869,-0.0825 c -1.4108,10.6221 0.8708,10.1091 -9.0575,13.5554 -5.7433,1.9936 -13.096,3.2527 -13.3771,9.7651 -0.5102,11.8151 8.7868,25.5374 8.7532,38.0156 -0.0367,13.6683 -8.7912,13.9003 -10.4062,35.5947 -0.274,3.6793 -0.086,7.3324 0.3815,10.9781 0.56,4.3669 1.1283,5.4466 4.8673,6.8397 10.3954,3.873 41.8513,5.6478 44.5221,-6.3924 4.3938,-19.808 -7.7343,-33.7827 -7.029,-49.9781 0.3151,-7.2347 3.7693,-10.8475 6.3119,-16.0493 2.142,-4.382 5.4898,-11.7524 6.1601,-16.8623 1.3843,-10.5549 -10.7184,-7.2574 -18.3358,-15.3962 -3.0307,-3.2381 -1.2051,-5.6559 -1.9036,-9.9878 z"
       style="fill:#fde8e2;fill-rule:evenodd;stroke:#144c90;stroke-width:0.216;stroke-linecap:butt;stroke-linejoin:miter;stroke-dasharray:none"
       id="path153" />
    <path
       d="m 305.9956,603.4406 -0.0774,-10.5807 c -3.4521,1.4092 -3.8377,4.3018 -1.6069,7.1133 -3.0965,0.4998 -3.1787,-1.9674 -2.4813,-4.85 1.168,-4.8273 4.0947,-1.843 4.0947,-5.698 0,-4.9172 -0.437,-12.7499 -5.8179,-12.2199 -0.2403,12.5714 -5.7805,24.0598 5.8888,26.2353 z"
       style="fill:#fde8e2;fill-rule:evenodd;stroke:#144c90;stroke-width:0.216;stroke-linecap:butt;stroke-linejoin:miter;stroke-dasharray:none"
       id="path155" />
  </g>
  <text
     x="158.09669"
     y="471.5592"
     id="text160"><tspan
       font-family="Arial"
       font-size="18.5px"
       fill="#373937"
       id="tspan158">www.cleusamf.com.br</tspan></text>
</svg>
